<?xml version="1.0" standalone="no"?>
<!DOCTYPE svg PUBLIC "-//W3C//DTD SVG 20010904//EN"
 "http://www.w3.org/TR/2001/REC-SVG-20010904/DTD/svg10.dtd">
<svg version="1.0" xmlns="http://www.w3.org/2000/svg"
 width="500.000000pt" height="500.000000pt" viewBox="0 0 500.000000 500.000000"
 preserveAspectRatio="xMidYMid meet">
<metadata>
Created by potrace 1.14, written by Peter Selinger 2001-2017
</metadata>
<g transform="translate(0.000000,500.000000) scale(0.100000,-0.100000)"
fill="#000000" stroke="none">
<path d="M2130 3866 c0 -21 6 -24 64 -29 82 -8 135 -33 161 -77 20 -34 20 -49
21 -705 l2 -670 29 -65 c17 -36 40 -86 53 -112 l22 -48 53 0 52 0 26 58 c23
51 25 64 18 122 -14 110 -7 1348 7 1397 21 70 76 100 190 102 38 1 42 3 42 25
l0 25 -370 0 -370 0 0 -23z"/>
<path d="M1816 3848 c-10 -45 -20 -184 -13 -178 3 3 9 40 12 83 3 42 10 88 15
102 5 14 6 25 1 25 -5 0 -12 -15 -15 -32z"/>
<path d="M1845 3850 c5 -8 12 -44 16 -80 l7 -65 -2 67 c-1 42 -7 73 -15 80
-11 11 -12 10 -6 -2z"/>
<path d="M1927 3756 c-3 -8 -1 -18 5 -22 7 -4 6 -9 -3 -15 -11 -7 -10 -9 4 -9
14 0 17 -10 17 -68 0 -40 -5 -76 -13 -87 -8 -12 -11 -31 -7 -45 5 -22 8 -19
19 25 8 28 20 57 27 65 7 8 13 20 13 25 2 24 13 45 21 40 4 -3 11 2 14 11 3 8
11 12 17 8 7 -4 9 -3 6 3 -4 6 4 18 18 27 15 10 26 12 30 5 10 -15 -21 -57
-58 -79 -18 -11 -27 -20 -20 -20 33 0 119 108 100 126 -19 19 -154 -95 -143
-121 3 -9 2 -14 -3 -11 -4 3 -11 32 -14 65 -6 67 -20 104 -30 77z"/>
<path d="M1710 3720 c0 -6 7 -13 15 -16 8 -4 12 -10 10 -15 -3 -5 11 -25 31
-46 20 -21 31 -31 25 -21 -8 10 -8 18 -2 22 5 4 13 -4 17 -16 3 -12 13 -28 20
-36 12 -11 14 -9 12 12 -1 14 -6 26 -11 26 -5 0 -6 15 -3 33 5 27 5 29 -4 9
-5 -13 -14 -21 -19 -17 -5 3 -12 1 -16 -5 -8 -13 -22 -5 -35 21 -9 15 -7 19 5
19 9 0 13 -4 10 -10 -3 -5 2 -10 12 -10 14 0 10 8 -17 30 -37 31 -50 36 -50
20z"/>
<path d="M1851 3684 c0 -11 3 -14 6 -6 3 7 2 16 -1 19 -3 4 -6 -2 -5 -13z"/>
<path d="M1924 3685 c-3 -8 -4 -20 -2 -27 3 -7 7 -1 10 15 6 29 1 36 -8 12z"/>
<path d="M1913 3607 c0 -12 1 -16 4 -8 5 11 7 11 14 0 5 -8 9 -9 9 -3 0 6 -6
16 -13 22 -10 8 -13 6 -14 -11z"/>
<path d="M1520 3600 c0 -5 5 -10 11 -10 5 0 7 -5 3 -12 -5 -7 -3 -8 6 -3 10 6
12 4 7 -8 -4 -12 -2 -14 11 -10 15 6 15 4 4 -10 -8 -9 -11 -21 -7 -27 14 -23
33 -110 25 -115 -4 -3 -10 2 -14 10 -3 8 -12 15 -21 15 -13 0 -14 -4 -5 -20 6
-11 17 -20 24 -20 8 0 19 -6 25 -14 7 -8 21 -14 32 -13 22 2 22 0 7 31 -9 22
-14 24 -26 13 -13 -10 -14 -9 -4 10 15 27 15 43 1 23 -8 -11 -9 -8 -5 15 5 24
4 27 -5 15 -9 -12 -10 -11 -6 8 7 28 -1 54 -14 46 -5 -3 -9 -1 -9 5 0 5 4 12
9 16 10 5 51 -45 51 -63 0 -6 5 -14 11 -17 19 -12 -22 69 -49 98 -33 35 -62
52 -62 37z m93 -217 c-4 -10 -9 -11 -19 -2 -18 15 -18 15 5 15 11 0 17 -5 14
-13z"/>
<path d="M1916 3565 c4 -8 8 -15 10 -15 2 0 4 7 4 15 0 8 -4 15 -10 15 -5 0
-7 -7 -4 -15z"/>
<path d="M1846 3523 c18 -58 18 -134 1 -200 -8 -29 -10 -50 -6 -47 4 2 13 30
20 62 7 31 19 65 27 75 9 9 10 17 4 17 -6 0 -13 -6 -15 -12 -3 -7 -6 4 -6 24
-1 44 -22 128 -32 128 -4 0 -1 -21 7 -47z"/>
<path d="M1648 3388 c-2 -18 -9 -34 -15 -34 -7 -1 -16 -2 -20 -3 -3 0 2 -11
13 -23 18 -20 18 -21 1 -15 -11 4 -16 3 -12 -3 3 -6 13 -10 20 -10 20 0 39
-36 22 -43 -21 -8 -136 66 -157 101 -11 18 -25 32 -32 32 -6 0 -2 -9 10 -20
32 -30 27 -39 -20 -34 -39 3 -80 24 -48 24 9 0 7 5 -5 14 -29 21 -40 7 -15
-19 12 -13 38 -26 58 -29 99 -17 107 -23 72 -55 -8 -7 -3 -6 13 3 16 10 27 12
27 6 0 -6 4 -9 9 -6 11 7 41 -3 41 -13 0 -11 -39 -11 -45 0 -4 5 -12 6 -18 2
-7 -4 -61 -7 -122 -8 l-110 0 -3 -28 c-3 -25 -1 -27 35 -28 74 -1 120 -15 162
-46 69 -53 66 -17 68 -833 2 -774 0 -803 -43 -851 -32 -35 -73 -50 -150 -56
-69 -6 -74 -7 -74 -29 0 -13 3 -24 8 -25 9 -1 623 -1 640 0 6 1 12 12 12 25 0
22 -4 23 -79 29 -123 8 -162 41 -179 150 -5 31 -9 354 -9 718 0 559 2 659 13
644 8 -11 14 -24 14 -31 0 -7 14 -38 30 -69 19 -37 28 -66 25 -79 -4 -14 -3
-17 3 -8 6 9 18 -8 39 -55 17 -38 57 -124 88 -193 31 -69 70 -154 87 -190 17
-36 54 -117 83 -180 29 -63 68 -149 87 -190 19 -41 85 -186 148 -322 108 -237
129 -269 157 -249 5 3 64 128 132 276 68 149 144 312 167 363 24 52 44 95 44
97 0 1 23 52 50 111 28 60 61 130 73 157 23 51 37 60 37 25 0 -50 16 -1 27 82
3 25 11 56 18 70 7 14 25 54 41 90 15 36 45 103 67 150 22 47 48 103 57 125
22 48 21 66 21 -222 0 -172 -3 -217 -15 -240 -9 -15 -54 -68 -101 -118 l-84
-90 -1 45 c-1 25 -5 54 -9 65 -5 11 -6 -11 -3 -51 3 -44 0 -80 -7 -95 -9 -18
-7 -17 11 6 27 35 81 97 155 177 l53 57 1 -72 c1 -40 0 -76 -1 -82 -2 -5 -4
-22 -4 -37 0 -15 -4 -24 -8 -22 -5 3 -5 11 -2 17 18 31 -17 -13 -45 -58 l-32
-50 4 35 c2 19 2 27 0 17 -2 -9 -8 -15 -13 -12 -5 3 -7 -6 -4 -20 3 -17 0 -25
-10 -25 -9 0 -12 -7 -9 -20 4 -15 -5 -29 -33 -53 -20 -18 -65 -59 -98 -91 -54
-52 -49 -50 31 15 11 9 27 15 36 13 10 -1 15 2 11 7 -3 5 3 9 13 10 16 0 17 1
1 7 -14 6 -8 14 32 42 27 19 49 39 50 43 0 5 -5 5 -11 1 -16 -9 3 23 38 66 35
44 62 51 55 15 -2 -14 -19 -34 -38 -46 -19 -11 -34 -22 -34 -25 0 -7 35 9 53
24 16 14 17 12 18 -34 2 -196 -2 -503 -7 -542 -13 -98 -65 -140 -189 -149 -68
-5 -72 -7 -72 -29 0 -18 5 -24 21 -25 27 -1 746 -1 769 0 11 1 17 9 17 26 0
23 -3 25 -51 25 -114 0 -178 36 -201 113 -9 31 -12 187 -14 579 l-1 537 26 6
c25 6 91 57 91 71 0 4 -27 4 -59 0 l-60 -7 4 178 c3 204 14 249 70 281 40 24
74 32 143 33 49 2 52 3 52 28 l0 26 -267 0 -268 0 -15 -31 c-18 -35 -83 -176
-85 -184 -1 -3 -18 -41 -39 -85 -21 -44 -45 -97 -53 -118 -13 -32 -18 -36 -31
-25 -13 11 -14 10 -4 -9 8 -14 9 -24 2 -28 -5 -3 -10 -12 -10 -20 0 -7 -28
-73 -62 -145 l-61 -131 -31 6 c-30 5 -31 5 -6 -7 14 -7 26 -13 28 -14 2 -1
-32 -80 -76 -176 -44 -95 -112 -245 -152 -333 -39 -88 -76 -164 -81 -169 -5
-5 -16 9 -27 35 -11 24 -33 73 -50 109 -16 36 -139 299 -271 585 -231 497
-241 521 -223 535 10 9 17 22 14 30 -4 12 -2 13 9 3 7 -7 18 -13 24 -13 5 0 2
5 -8 11 -22 13 -12 28 47 71 30 21 42 25 48 16 5 -10 8 -8 8 5 0 33 -33 16
-101 -52 -37 -38 -70 -67 -73 -63 -12 11 -5 45 14 72 23 33 35 108 21 130 -12
17 -16 14 -25 -20 -7 -24 -6 -24 8 -6 15 19 16 18 16 -15 0 -21 -3 -29 -8 -21
-6 8 -9 2 -9 -18 0 -17 -6 -36 -13 -43 -9 -9 -11 -9 -6 0 3 6 2 14 -3 17 -5 4
-11 -4 -13 -16 -3 -18 -11 -8 -38 47 l-35 70 -75 0 c-41 0 -80 3 -86 7 -15 10
-28 72 -25 121 3 45 -7 50 -11 5z m1912 -702 c-14 -14 -37 -28 -52 -31 -24 -6
-28 -4 -28 14 0 20 37 38 85 40 18 1 18 -1 -5 -23z m-570 -252 c0 -14 -4 -23
-9 -20 -5 3 -7 15 -4 26 7 28 13 25 13 -6z"/>
<path d="M1560 3361 c0 -10 19 -25 25 -20 1 2 -3 10 -11 17 -8 7 -14 8 -14 3z"/>
<path d="M1483 3285 c-18 -8 -33 -16 -33 -19 0 -8 59 15 66 25 7 11 6 11 -33
-6z"/>
<path d="M1927 3190 c-3 -12 0 -20 8 -20 8 0 11 8 8 20 -3 11 -7 20 -8 20 -1
0 -5 -9 -8 -20z"/>
<path d="M2069 3143 c-13 -16 -12 -17 4 -4 16 13 21 21 13 21 -2 0 -10 -8 -17
-17z"/>
<path d="M2080 3119 c-6 -11 -21 -24 -33 -29 -15 -6 -17 -9 -6 -9 9 -1 23 7
31 17 19 22 31 42 24 42 -3 0 -10 -9 -16 -21z"/>
<path d="M2029 3113 c-13 -16 -12 -17 4 -4 9 7 17 15 17 17 0 8 -8 3 -21 -13z"/>
<path d="M1741 2804 c1 -21 5 -50 9 -64 5 -16 6 -2 3 35 -7 69 -13 86 -12 29z"/>
<path d="M1765 2689 c12 -40 34 -89 39 -89 3 0 -2 16 -10 35 -8 20 -13 43 -12
52 2 9 -3 18 -11 21 -10 3 -11 -2 -6 -19z"/>
<path d="M2763 2675 c0 -8 6 -16 13 -19 7 -3 10 2 7 15 -6 22 -20 26 -20 4z"/>
<path d="M2772 2627 c13 -26 97 -91 106 -82 8 8 -8 72 -23 91 -13 17 -13 14 0
-18 18 -44 19 -58 5 -58 -5 0 -9 5 -7 12 1 7 -2 13 -8 13 -21 2 -55 17 -55 24
0 4 -7 16 -16 27 -14 18 -14 17 -2 -9z"/>
<path d="M2790 2636 c0 -2 8 -10 18 -17 15 -13 16 -12 3 4 -13 16 -21 21 -21
13z"/>
<path d="M1810 2581 c0 -6 4 -13 10 -16 6 -3 7 1 4 9 -7 18 -14 21 -14 7z"/>
<path d="M2808 2523 c12 -2 32 -2 45 0 12 2 2 4 -23 4 -25 0 -35 -2 -22 -4z"/>
<path d="M2760 2509 c0 -14 20 -20 36 -11 14 8 12 10 -10 14 -14 3 -26 2 -26
-3z"/>
<path d="M3101 2244 c0 -11 3 -14 6 -6 3 7 2 16 -1 19 -3 4 -6 -2 -5 -13z"/>
<path d="M3082 2170 c0 -14 2 -19 5 -12 2 6 2 18 0 25 -3 6 -5 1 -5 -13z"/>
<path d="M2917 2073 c-14 -32 -28 -71 -31 -88 -4 -16 2 -7 13 21 10 27 26 65
35 83 10 18 16 35 13 37 -2 2 -16 -22 -30 -53z"/>
<path d="M3115 2031 c-3 -5 -15 -7 -28 -5 -21 4 -21 4 2 -6 23 -10 24 -11 5
-26 -18 -14 -18 -15 4 -4 12 6 22 15 22 20 0 5 8 10 18 12 16 3 16 4 0 10 -10
4 -20 3 -23 -1z"/>
<path d="M3045 1980 c-19 -8 -19 -9 3 -9 12 -1 22 4 22 9 0 6 -1 10 -2 9 -2 0
-12 -4 -23 -9z"/>
<path d="M2872 1925 c0 -16 2 -22 5 -12 2 9 2 23 0 30 -3 6 -5 -1 -5 -18z"/>
<path d="M2860 1830 c0 -35 2 -61 4 -59 8 8 10 108 3 116 -4 3 -7 -22 -7 -57z"/>
</g>
</svg>
